# xmcd
#
# Track frame offsets:
#	150
#	12147
#	25946
#	41204
#	57139
#	69046
#	86240
#	97816
#	109906
#	121962
#
# Disc length: 1820 seconds
# Revision: 0
# Processed by: cddbd v1.5.2PL0 Copyright (c) Steve Scherf et al.
# Submitted via: dBpowerAMP V12.0
#
DISCID=77071a0a
DTITLE=Diamond Creek - Where Do I Go From Here
DYEAR=2015
DGENRE=Country
TTITLE0=Where Do I Go From Here
TTITLE1=Now We All Know
TTITLE2=Folsom Prison Blues
TTITLE3=All The Good Times Are Past And Gone
TTITLE4=She's More To Be Pitied Than Scolded
TTITLE5=Working On A Building
TTITLE6=Forty Years Of Trouble
TTITLE7=No Good Heartbreak Blues
TTITLE8=Poor Monroe
TTITLE9=Walk Softly On This Heart Of Mine
EXTD=
EXTT0=
EXTT1=
EXTT2=
EXTT3=
EXTT4=
EXTT5=
EXTT6=
EXTT7=
EXTT8=
EXTT9=
PLAYORDER=
